<svg width="22" height="23" viewBox="0 0 22 23" fill="none" xmlns="http://www.w3.org/2000/svg">
<path d="M20.7891 1.48003L21.3791 2.07003C22.1921 2.88403 22.0691 4.32703 21.1021 5.29303L8.93505 17.46L4.99305 18.902C4.49805 19.084 4.01605 18.848 3.91805 18.377C3.88493 18.2062 3.90053 18.0294 3.96305 17.867L5.43305 13.891L17.5661 1.75703C18.5331 0.791025 19.9761 0.667025 20.7891 1.48103V1.48003ZM8.40405 2.69003C8.53537 2.69003 8.66541 2.71589 8.78674 2.76615C8.90806 2.8164 9.0183 2.89006 9.11116 2.98292C9.20402 3.07578 9.27768 3.18602 9.32793 3.30734C9.37819 3.42867 9.40405 3.5587 9.40405 3.69003C9.40405 3.82135 9.37819 3.95138 9.32793 4.07271C9.27768 4.19403 9.20402 4.30427 9.11116 4.39713C9.0183 4.48999 8.90806 4.56365 8.78674 4.6139C8.66541 4.66416 8.53537 4.69003 8.40405 4.69003H4.40405C3.87362 4.69003 3.36491 4.90074 2.98984 5.27581C2.61477 5.65088 2.40405 6.15959 2.40405 6.69003V18.69C2.40405 19.2205 2.61477 19.7292 2.98984 20.1042C3.36491 20.4793 3.87362 20.69 4.40405 20.69H16.4041C16.9345 20.69 17.4432 20.4793 17.8183 20.1042C18.1933 19.7292 18.4041 19.2205 18.4041 18.69V14.69C18.4041 14.4248 18.5094 14.1705 18.6969 13.9829C18.8845 13.7954 19.1388 13.69 19.4041 13.69C19.6693 13.69 19.9236 13.7954 20.1112 13.9829C20.2987 14.1705 20.4041 14.4248 20.4041 14.69V18.69C20.4041 19.7509 19.9826 20.7683 19.2325 21.5185C18.4823 22.2686 17.4649 22.69 16.4041 22.69H4.40405C3.34319 22.69 2.32577 22.2686 1.57563 21.5185C0.82548 20.7683 0.404053 19.7509 0.404053 18.69V6.69003C0.404053 5.62916 0.82548 4.61174 1.57563 3.8616C2.32577 3.11145 3.34319 2.69003 4.40405 2.69003H8.40405Z" fill="white"/>
</svg>
