<svg width="18" height="24" viewBox="0 0 18 24" fill="none" xmlns="http://www.w3.org/2000/svg">
<path d="M8.99992 4.99992C8.6905 4.99992 8.39375 5.12284 8.17496 5.34163C7.95617 5.56042 7.83325 5.85717 7.83325 6.16659V8.49992C7.83325 8.80934 7.95617 9.10608 8.17496 9.32488C8.39375 9.54367 8.6905 9.66659 8.99992 9.66659C9.30934 9.66659 9.60609 9.54367 9.82488 9.32488C10.0437 9.10608 10.1666 8.80934 10.1666 8.49992V6.16659C10.1666 5.85717 10.0437 5.56042 9.82488 5.34163C9.60609 5.12284 9.30934 4.99992 8.99992 4.99992ZM8.99992 0.333252C6.83398 0.333252 4.75676 1.19367 3.22521 2.72521C1.69367 4.25676 0.833252 6.33398 0.833252 8.49992V15.4999C0.833252 17.6659 1.69367 19.7431 3.22521 21.2746C4.75676 22.8062 6.83398 23.6666 8.99992 23.6666C11.1659 23.6666 13.2431 22.8062 14.7746 21.2746C16.3062 19.7431 17.1666 17.6659 17.1666 15.4999V8.49992C17.1666 6.33398 16.3062 4.25676 14.7746 2.72521C13.2431 1.19367 11.1659 0.333252 8.99992 0.333252ZM14.8333 15.4999C14.8333 17.047 14.2187 18.5307 13.1247 19.6247C12.0307 20.7187 10.547 21.3333 8.99992 21.3333C7.45282 21.3333 5.96909 20.7187 4.87513 19.6247C3.78117 18.5307 3.16659 17.047 3.16659 15.4999V8.49992C3.16659 6.95282 3.78117 5.46909 4.87513 4.37513C5.96909 3.28117 7.45282 2.66659 8.99992 2.66659C10.547 2.66659 12.0307 3.28117 13.1247 4.37513C14.2187 5.46909 14.8333 6.95282 14.8333 8.49992V15.4999Z" fill="#32495E"/>
</svg>
