<svg width="34" height="34" viewBox="0 0 34 34" fill="none" xmlns="http://www.w3.org/2000/svg">
<path fill-rule="evenodd" clip-rule="evenodd" d="M5.43994 17C5.43994 23.392 10.6079 28.56 16.9999 28.56C23.3919 28.56 28.5599 23.392 28.5599 17C28.5599 10.608 23.3919 5.44 16.9999 5.44C10.6079 5.44 5.43994 10.608 5.43994 17ZM6.79994 17C6.79994 11.356 11.3559 6.8 16.9999 6.8C22.6439 6.8 27.1999 11.356 27.1999 17C27.1999 22.644 22.6439 27.2 16.9999 27.2C11.3559 27.2 6.79994 22.644 6.79994 17ZM23.7999 17L13.5999 11.084V22.916L23.7999 17ZM14.9599 20.536V13.396L21.0799 16.932L14.9599 20.536Z" fill="#F9F9F9"/>
</svg>
