<svg width="24" height="24" viewBox="0 0 24 24" fill="none" xmlns="http://www.w3.org/2000/svg">
<path d="M23.7807 8.70485L15.2963 0.220473C15.1557 0.0799267 14.965 0.000976562 14.7662 0.000976562C14.5673 0.000976562 14.3766 0.0799267 14.236 0.220473L13.1724 1.27985C13.1028 1.34949 13.0475 1.43218 13.0098 1.52319C12.9721 1.61419 12.9527 1.71173 12.9527 1.81024C12.9527 1.90874 12.9721 2.00629 13.0098 2.09729C13.0475 2.1883 13.1028 2.27098 13.1724 2.34063L21.6568 10.825C21.7264 10.8947 21.8091 10.9499 21.9001 10.9876C21.9911 11.0253 22.0887 11.0447 22.1872 11.0447C22.2857 11.0447 22.3832 11.0253 22.4742 10.9876C22.5652 10.9499 22.6479 10.8947 22.7176 10.825L23.7779 9.76422C23.9185 9.624 23.9978 9.43371 23.9983 9.23512C23.9988 9.03652 23.9206 8.84582 23.7807 8.70485ZM15.3648 11.8178L12.1824 8.63547L14.7652 6.05266L12.6441 3.93157L7.50335 9.07235C6.90701 9.6687 6.49009 10.4205 6.30007 11.2422L4.99976 16.8794L0.21851 21.6606C0.148848 21.7303 0.0935878 21.813 0.055886 21.904C0.0181843 21.995 -0.0012207 22.0925 -0.0012207 22.191C-0.0012207 22.2895 0.0181843 22.3871 0.055886 22.4781C0.0935878 22.5691 0.148848 22.6518 0.21851 22.7214L1.27882 23.7817C1.34847 23.8514 1.43116 23.9066 1.52216 23.9443C1.61317 23.982 1.71071 24.0015 1.80921 24.0015C1.90772 24.0015 2.00526 23.982 2.09626 23.9443C2.18727 23.9066 2.26996 23.8514 2.3396 23.7817L7.12085 19.0005L12.7576 17.6997C13.5793 17.5104 14.3313 17.0938 14.9274 16.4973L20.0687 11.3561L17.9476 9.23407L15.3648 11.8178ZM12.8068 14.3758C12.6077 14.5745 12.3567 14.7132 12.0826 14.7761L8.36539 15.6348L9.2232 11.9177C9.28688 11.6436 9.42585 11.3928 9.62445 11.1934L10.0609 10.757L13.2432 13.9394L12.8068 14.3758Z" fill="#F9F9F9"/>
</svg>
