<svg width="49" height="31" viewBox="0 0 49 31" fill="none" xmlns="http://www.w3.org/2000/svg">
<path fill-rule="evenodd" clip-rule="evenodd" d="M0.0282654 11.6004C0.321283 15.5917 3.09678 18.7894 8.35481 21.1936C14.6612 14.1759 24.1881 7.11146 36.9355 0C28.1609 3.63068 19.6748 8.23324 11.4771 13.8079C8.59337 11.3805 7.39249 9.42712 7.8744 7.94756C8.5458 5.96381 10.1735 5.37505 12.758 6.1814C11.0946 5.93868 10.2173 6.22974 10.1259 7.05455C10.0483 7.59193 10.3662 7.91505 10.7142 8.14744C11.3094 8.54487 12.0814 8.59686 13.338 8.46929C14.4996 8.35983 15.4669 8.73446 16.2401 9.59314C16.6506 9.81283 16.8573 9.59871 16.8606 8.95087C17.5507 8.97684 17.991 8.93002 18.1816 8.81047C15.0316 6.85648 12.8166 5.29095 11.5367 4.11407C10.5158 3.37821 12.0387 2.77824 12.1031 2.58333C7.33539 1.96205 4.34715 3.33903 3.23065 4.9771C0.875474 6.93888 -0.192039 9.14666 0.0282654 11.6004Z" fill="#32495E"/>
<path fill-rule="evenodd" clip-rule="evenodd" d="M35.4503 8.98386C28.3166 10.4705 18.3628 16.605 5.58911 27.3876C17.7987 13.9232 27.9387 6.53699 36.0105 5.2306C42.3558 4.44124 46.4654 6.44814 48.3394 11.2516C48.99 15.1927 45.2807 19.4208 37.2114 23.9357C32.1579 26.9089 28.0483 29.2638 24.8825 31.0002C20.5493 29.1801 16.5464 26.9859 12.8738 24.4173C22.3134 17.1089 28.7181 13.4429 32.0878 13.4191C34.2486 13.0717 35.4427 13.8075 35.6704 15.6266C35.6024 16.7001 34.9887 17.543 33.8292 18.1555C33.9858 16.6677 33.3987 15.7044 32.0678 15.2654C29.9547 14.8907 28.5937 15.4527 27.9849 16.9512C26.8577 19.9403 25.8971 21.6864 25.1027 22.1895C23.6529 22.9025 23.0458 23.5448 23.2815 24.1162C23.5791 24.8728 23.8526 25.3143 24.1021 25.4408C24.497 24.8794 24.8638 24.5316 25.2028 24.3971C25.5038 24.6655 25.177 25.2742 24.2221 26.2236C24.6303 26.5969 25.1572 26.5701 25.8033 26.1432C32.2847 21.9465 36.5011 19.2973 38.4526 18.1956C39.0533 17.9147 39.7471 18.2425 40.5341 19.179C40.7021 18.0585 40.8222 16.6939 40.8942 15.085C42.4779 12.227 42.6112 10.3003 41.2944 9.30499C39.5048 8.4422 37.5567 8.33516 35.4503 8.98386Z" fill="#E95258"/>
</svg>
