<svg width="34" height="34" viewBox="0 0 34 34" fill="none" xmlns="http://www.w3.org/2000/svg">
<circle cx="17" cy="17" r="17" fill="#E95258"/>
<path d="M13.5508 14.2906C13.4333 14.407 13.2746 14.4723 13.1092 14.4723C12.9438 14.4723 12.7851 14.407 12.6676 14.2906C12.6096 14.2335 12.5635 14.1653 12.532 14.0902C12.5006 14.0151 12.4844 13.9345 12.4844 13.853C12.4844 13.7716 12.5006 13.691 12.532 13.6159C12.5635 13.5407 12.6096 13.4726 12.6676 13.4155L16.197 9.95651C16.3148 9.8403 16.4736 9.77515 16.6391 9.77515C16.8045 9.77515 16.9634 9.8403 17.0812 9.95651L20.6106 13.4155C20.6686 13.4726 20.7147 13.5407 20.7461 13.6159C20.7776 13.691 20.7938 13.7716 20.7938 13.853C20.7938 13.9345 20.7776 14.0151 20.7461 14.0902C20.7147 14.1653 20.6686 14.2335 20.6106 14.2906C20.4928 14.4068 20.334 14.472 20.1685 14.472C20.003 14.472 19.8442 14.4068 19.7264 14.2906L16.6377 11.4539L13.5508 14.2906Z" fill="#F9F9F9"/>
<path d="M13.5508 18.8062C13.4333 18.9226 13.2746 18.9879 13.1092 18.9879C12.9438 18.9879 12.7851 18.9226 12.6676 18.8062C12.6096 18.7491 12.5635 18.681 12.532 18.6059C12.5006 18.5307 12.4844 18.4501 12.4844 18.3687C12.4844 18.2872 12.5006 18.2066 12.532 18.1315C12.5635 18.0564 12.6096 17.9882 12.6676 17.9311L16.197 14.4721C16.3148 14.3559 16.4736 14.2908 16.6391 14.2908C16.8045 14.2908 16.9634 14.3559 17.0812 14.4721L20.6106 17.9311C20.6686 17.9882 20.7147 18.0564 20.7461 18.1315C20.7776 18.2066 20.7938 18.2872 20.7938 18.3687C20.7938 18.4501 20.7776 18.5307 20.7461 18.6059C20.7147 18.681 20.6686 18.7491 20.6106 18.8062C20.4928 18.9224 20.334 18.9876 20.1685 18.9876C20.003 18.9876 19.8442 18.9224 19.7264 18.8062L16.6377 15.9695L13.5508 18.8062Z" fill="#F9F9F9"/>
<path d="M13.5508 23.3219C13.4333 23.4382 13.2746 23.5035 13.1092 23.5035C12.9438 23.5035 12.7851 23.4382 12.6676 23.3219C12.6096 23.2647 12.5635 23.1966 12.532 23.1215C12.5006 23.0464 12.4844 22.9657 12.4844 22.8843C12.4844 22.8029 12.5006 22.7222 12.532 22.6471C12.5635 22.572 12.6096 22.5039 12.6676 22.4467L16.197 18.9878C16.3148 18.8715 16.4736 18.8064 16.6391 18.8064C16.8045 18.8064 16.9634 18.8715 17.0812 18.9878L20.6106 22.4467C20.6686 22.5039 20.7147 22.572 20.7461 22.6471C20.7776 22.7222 20.7938 22.8029 20.7938 22.8843C20.7938 22.9657 20.7776 23.0464 20.7461 23.1215C20.7147 23.1966 20.6686 23.2647 20.6106 23.3219C20.4928 23.4381 20.334 23.5032 20.1685 23.5032C20.003 23.5032 19.8442 23.4381 19.7264 23.3219L16.6377 20.4851L13.5508 23.3219Z" fill="#F9F9F9"/>
</svg>
